/* XPM */
static char *_33_909678d77599b605468d63485ae200904bb5fa854c87046786592fba551f418a[] = {
/* columns rows colors chars-per-pixel */
"120 120 27 1 ",
"  c #D87F33",
". c #7FCC19",
"X c #95B81F",
"o c #96BB24",
"O c #96BE2A",
"+ c #97BF2B",
"@ c #97BF2C",
"# c #D98944",
"$ c #DA8A45",
"% c #DA8A46",
"& c #DC9A61",
"* c #DE9C63",
"= c #DF9C64",
"- c #DF9D64",
"; c #98D14C",
": c #99D24D",
"> c #9CD550",
", c #9CD650",
"< c #9DD651",
"1 c gray91",
"2 c #E9E9E9",
"3 c gray92",
"4 c #F1F1F1",
"5 c gray95",
"6 c #F3F3F3",
"7 c #F4F4F4",
"8 c gray96",
/* pixels */
"........................................................................................................................",
"........................................................................................................................",
"........................................................................................................................",
"........................................................................................................................",
"........................................................................................................................",
"........................................................................................................................",
"....................................XXXXXX....................................XXXXXX....................................",
"....................................XXXXXX....................................XXXXXX....................................",
"....................................XXXXXX....................................XXXXXX....................................",
"....................................XXXXXX....................................XXXXXX....................................",
"....................................XXXXXX....................................XXXXXX....................................",
"....................................XXXXXX....................................XXXXXX....................................",
"OOOOOO........................>>>>>>******++++++........................++++++======@@@@@@........................OOOOOO",
"OOOOOO........................>>>>>>******++++++........................++++++======@@@@@@........................OOOOOO",
"OOOOOO........................>>>>>>******++++++........................++++++======@@@@@@........................OOOOOO",
"OOOOOO........................>>>>>>******++++++........................++++++======@@@@@@........................OOOOOO",
"OOOOOO........................>>>>>>******++++++........................++++++======@@@@@@........................OOOOOO",
"OOOOOO........................>>>>>>******++++++........................++++++======@@@@@@........................OOOOOO",
";;;;;;........................>>>>>>444444,,,,,,........................>>>>>>777777,,,,,,........................::::::",
";;;;;;........................>>>>>>444444,,,,,,........................>>>>>>777777,,,,,,........................::::::",
";;;;;;........................>>>>>>444444,,,,,,........................>>>>>>777777,,,,,,........................::::::",
";;;;;;........................>>>>>>444444,,,,,,........................>>>>>>777777,,,,,,........................::::::",
";;;;;;........................>>>>>>444444,,,,,,........................>>>>>>777777,,,,,,........................::::::",
";;;;;;........................>>>>>>444444,,,,,,........................>>>>>>777777,,,,,,........................::::::",
"      oooooo............XXXXXX            $$$$$$<<<<<<............XXXXXX      %%%%%%777777XXXXXX............XXXXXX######",
"      oooooo............XXXXXX            $$$$$$<<<<<<............XXXXXX      %%%%%%777777XXXXXX............XXXXXX######",
"      oooooo............XXXXXX            $$$$$$<<<<<<............XXXXXX      %%%%%%777777XXXXXX............XXXXXX######",
"      oooooo............XXXXXX            $$$$$$<<<<<<............XXXXXX      %%%%%%777777XXXXXX............XXXXXX######",
"      oooooo............XXXXXX            $$$$$$<<<<<<............XXXXXX      %%%%%%777777XXXXXX............XXXXXX######",
"      oooooo............XXXXXX            $$$$$$<<<<<<............XXXXXX      %%%%%%777777XXXXXX............XXXXXX######",
"      ++++++............XXXXXX            ------>>>>>>............XXXXXX      ******777777XXXXXX............XXXXXX&&&&&&",
"      ++++++............XXXXXX            ------>>>>>>............XXXXXX      ******777777XXXXXX............XXXXXX&&&&&&",
"      ++++++............XXXXXX            ------>>>>>>............XXXXXX      ******777777XXXXXX............XXXXXX&&&&&&",
"      ++++++............XXXXXX            ------>>>>>>............XXXXXX      ******777777XXXXXX............XXXXXX&&&&&&",
"      ++++++............XXXXXX            ------>>>>>>............XXXXXX      ******777777XXXXXX............XXXXXX&&&&&&",
"      ++++++............XXXXXX            ------>>>>>>............XXXXXX      ******777777XXXXXX............XXXXXX&&&&&&",
"&&&&&&******,,,,,,++++++******------******======555555++++++++++++******------======777777******++++++@@@@@@******&&&&&&",
"&&&&&&******,,,,,,++++++******------******======555555++++++++++++******------======777777******++++++@@@@@@******&&&&&&",
"&&&&&&******,,,,,,++++++******------******======555555++++++++++++******------======777777******++++++@@@@@@******&&&&&&",
"&&&&&&******,,,,,,++++++******------******======555555++++++++++++******------======777777******++++++@@@@@@******&&&&&&",
"&&&&&&******,,,,,,++++++******------******======555555++++++++++++******------======777777******++++++@@@@@@******&&&&&&",
"&&&&&&******,,,,,,++++++******------******======555555++++++++++++******------======777777******++++++@@@@@@******&&&&&&",
"333333777777888888777777444444888888444444666666555555555555666666666666666666555555777777444444666666777777555555111111",
"333333777777888888777777444444888888444444666666555555555555666666666666666666555555777777444444666666777777555555111111",
"333333777777888888777777444444888888444444666666555555555555666666666666666666555555777777444444666666777777555555111111",
"333333777777888888777777444444888888444444666666555555555555666666666666666666555555777777444444666666777777555555111111",
"333333777777888888777777444444888888444444666666555555555555666666666666666666555555777777444444666666777777555555111111",
"333333777777888888777777444444888888444444666666555555555555666666666666666666555555777777444444666666777777555555111111",
"                        $$$$$$555555                        $$$$$$666666                        $$$$$$777777            ",
"                        $$$$$$555555                        $$$$$$666666                        $$$$$$777777            ",
"                        $$$$$$555555                        $$$$$$666666                        $$$$$$777777            ",
"                        $$$$$$555555                        $$$$$$666666                        $$$$$$777777            ",
"                        $$$$$$555555                        $$$$$$666666                        $$$$$$777777            ",
"                        $$$$$$555555                        $$$$$$666666                        $$$$$$777777            ",
"                        ======555555                        ******666666                        ******777777            ",
"                        ======555555                        ******666666                        ******777777            ",
"                        ======555555                        ******666666                        ******777777            ",
"                        ======555555                        ******666666                        ******777777            ",
"                        ======555555                        ******666666                        ******777777            ",
"                        ======555555                        ******666666                        ******777777            ",
"&&&&&&------------============444444************============------555555************======************777777******&&&&&&",
"&&&&&&------------============444444************============------555555************======************777777******&&&&&&",
"&&&&&&------------============444444************============------555555************======************777777******&&&&&&",
"&&&&&&------------============444444************============------555555************======************777777******&&&&&&",
"&&&&&&------------============444444************============------555555************======************777777******&&&&&&",
"&&&&&&------------============444444************============------555555************======************777777******&&&&&&",
"333333888888888888777777777777444444444444666666777777777777888888555555666666555555777777666666444444777777444444222222",
"333333888888888888777777777777444444444444666666777777777777888888555555666666555555777777666666444444777777444444222222",
"333333888888888888777777777777444444444444666666777777777777888888555555666666555555777777666666444444777777444444222222",
"333333888888888888777777777777444444444444666666777777777777888888555555666666555555777777666666444444777777444444222222",
"333333888888888888777777777777444444444444666666777777777777888888555555666666555555777777666666444444777777444444222222",
"333333888888888888777777777777444444444444666666777777777777888888555555666666555555777777666666444444777777444444222222",
"      %%%%%%888888                        $$$$$$777777                        $$$$$$555555                        ######",
"      %%%%%%888888                        $$$$$$777777                        $$$$$$555555                        ######",
"      %%%%%%888888                        $$$$$$777777                        $$$$$$555555                        ######",
"      %%%%%%888888                        $$$$$$777777                        $$$$$$555555                        ######",
"      %%%%%%888888                        $$$$$$777777                        $$$$$$555555                        ######",
"      %%%%%%888888                        $$$$$$777777                        $$$$$$555555                        ######",
"      ------888888                        ******777777                        ******555555                        &&&&&&",
"      ------888888                        ******777777                        ******555555                        &&&&&&",
"      ------888888                        ******777777                        ******555555                        &&&&&&",
"      ------888888                        ******777777                        ******555555                        &&&&&&",
"      ------888888                        ******777777                        ******555555                        &&&&&&",
"      ------888888                        ******777777                        ******555555                        &&&&&&",
"&&&&&&------888888======------******************777777======************************555555************======******&&&&&&",
"&&&&&&------888888======------******************777777======************************555555************======******&&&&&&",
"&&&&&&------888888======------******************777777======************************555555************======******&&&&&&",
"&&&&&&------888888======------******************777777======************************555555************======******&&&&&&",
"&&&&&&------888888======------******************777777======************************555555************======******&&&&&&",
"&&&&&&------888888======------******************777777======************************555555************======******&&&&&&",
"222222888888777777777777666666444444555555666666777777777777777777555555888888555555555555666666444444777777444444222222",
"222222888888777777777777666666444444555555666666777777777777777777555555888888555555555555666666444444777777444444222222",
"222222888888777777777777666666444444555555666666777777777777777777555555888888555555555555666666444444777777444444222222",
"222222888888777777777777666666444444555555666666777777777777777777555555888888555555555555666666444444777777444444222222",
"222222888888777777777777666666444444555555666666777777777777777777555555888888555555555555666666444444777777444444222222",
"222222888888777777777777666666444444555555666666777777777777777777555555888888555555555555666666444444777777444444222222",
"                        $$$$$$888888                        $$$$$$555555                        $$$$$$777777            ",
"                        $$$$$$888888                        $$$$$$555555                        $$$$$$777777            ",
"                        $$$$$$888888                        $$$$$$555555                        $$$$$$777777            ",
"                        $$$$$$888888                        $$$$$$555555                        $$$$$$777777            ",
"                        $$$$$$888888                        $$$$$$555555                        $$$$$$777777            ",
"                        $$$$$$888888                        $$$$$$555555                        $$$$$$777777            ",
"                        ******888888                        ******777777                        ******777777            ",
"                        ******888888                        ******777777                        ******777777            ",
"                        ******888888                        ******777777                        ******777777            ",
"                        ******888888                        ******777777                        ******777777            ",
"                        ******888888                        ******777777                        ******777777            ",
"                        ******888888                        ******777777                        ******777777            ",
"&&&&&&************************777777******======******======******777777******************************777777******&&&&&&",
"&&&&&&************************777777******======******======******777777******************************777777******&&&&&&",
"&&&&&&************************777777******======******======******777777******************************777777******&&&&&&",
"&&&&&&************************777777******======******======******777777******************************777777******&&&&&&",
"&&&&&&************************777777******======******======******777777******************************777777******&&&&&&",
"&&&&&&************************777777******======******======******777777******************************777777******&&&&&&",
"222222555555666666555555666666777777555555777777444444777777555555777777666666555555555555666666555555777777666666222222",
"222222555555666666555555666666777777555555777777444444777777555555777777666666555555555555666666555555777777666666222222",
"222222555555666666555555666666777777555555777777444444777777555555777777666666555555555555666666555555777777666666222222",
"222222555555666666555555666666777777555555777777444444777777555555777777666666555555555555666666555555777777666666222222",
"222222555555666666555555666666777777555555777777444444777777555555777777666666555555555555666666555555777777666666222222",
"222222555555666666555555666666777777555555777777444444777777555555777777666666555555555555666666555555777777666666222222"
};
